<?xml version="1.0" standalone="no"?>
<!DOCTYPE svg PUBLIC "-//W3C//DTD SVG 20010904//EN"
 "http://www.w3.org/TR/2001/REC-SVG-20010904/DTD/svg10.dtd">
<svg version="1.0" xmlns="http://www.w3.org/2000/svg"
 width="260.000000pt" height="260.000000pt" viewBox="0 0 260.000000 260.000000"
 preserveAspectRatio="xMidYMid meet">
<metadata>
Created by potrace 1.11, written by Peter Selinger 2001-2013
</metadata>
<g transform="translate(0.000000,260.000000) scale(0.100000,-0.100000)"
fill="#000000" stroke="none">
<path d="M0 1300 l0 -1300 1300 0 1300 0 0 1300 0 1300 -1300 0 -1300 0 0
-1300z m1350 930 c289 -36 451 -140 521 -335 27 -76 37 -242 19 -324 -29 -133
-146 -281 -268 -341 -28 -14 -51 -28 -52 -33 0 -8 124 -195 366 -552 83 -121
153 -226 157 -232 7 -10 -38 -13 -210 -13 l-218 0 -218 350 -218 350 -105 0
-104 0 0 -350 0 -350 -195 0 -195 0 0 920 0 920 318 0 c175 0 356 -5 402 -10z"/>
<path d="M1027 1914 c-4 -4 -7 -115 -7 -246 0 -208 2 -239 16 -245 8 -3 75 -1
148 5 238 19 319 83 318 253 0 119 -54 183 -177 213 -68 17 -286 31 -298 20z"/>
</g>
</svg>
