<?xml version="1.0" standalone="no"?>
<!DOCTYPE svg PUBLIC "-//W3C//DTD SVG 20010904//EN"
 "http://www.w3.org/TR/2001/REC-SVG-20010904/DTD/svg10.dtd">
<svg version="1.0" xmlns="http://www.w3.org/2000/svg"
 width="270.000000pt" height="270.000000pt" viewBox="0 0 270.000000 270.000000"
 preserveAspectRatio="xMidYMid meet">
<metadata>
Created by potrace 1.11, written by Peter Selinger 2001-2013
</metadata>
<g transform="translate(0.000000,270.000000) scale(0.100000,-0.100000)"
fill="#000000" stroke="none">
<path d="M840 1356 l0 -766 140 0 140 0 0 300 0 300 83 0 c61 0 89 -4 106 -17
13 -9 102 -134 197 -279 96 -146 185 -271 200 -281 23 -15 54 -18 171 -22 79
-2 143 0 143 4 0 16 -389 582 -422 614 l-37 37 69 32 c222 103 320 375 214
598 -31 65 -111 141 -189 178 -113 53 -155 59 -497 63 l-318 5 0 -766z m643
510 c94 -45 133 -119 125 -230 -6 -75 -35 -134 -85 -175 -58 -48 -112 -62
-265 -68 l-138 -6 0 258 0 257 153 -4 c143 -4 157 -6 210 -32z"/>
</g>
</svg>
